<?xml version="1.0" encoding="utf-8"?>
<!-- Generator: Adobe Illustrator 22.0.1, SVG Export Plug-In . SVG Version: 6.00 Build 0)  -->
<svg version="1.1" id="_x32_-color" xmlns="http://www.w3.org/2000/svg" xmlns:xlink="http://www.w3.org/1999/xlink" x="0px"
	 y="0px" viewBox="0 0 360 144" style="enable-background:new 0 0 360 144;" xml:space="preserve">
<style type="text/css">
	.st0{fill:#E6BB52;}
</style>
<g>
	<path class="st0" d="M16.4,125c-1,0.1-1.7,0-2.7-0.3l-0.7-0.1v7.5c0,0.5,0.1,1,0.3,1.2c0.3,0.3,0.5,0.3,0.9,0.4h1
		c0.2,0,0.5,0.2,0.5,0.4c0,0.3-0.2,0.5-0.4,0.5l-3.9-0.1l-3.2,0.1c-0.3,0-0.6,0-0.7-0.3s0.1-0.7,0.5-0.7h0.5c0.5,0,0.9-0.1,1.2-0.5
		c0.1-0.2,0.1-0.4,0.1-0.7v-17.2c0-0.3-0.1-0.6-0.3-0.8c-0.1-0.2-0.2-0.4-0.4-0.4l-1-0.1c-0.2-0.1-0.5-0.3-0.5-0.6
		c0.1-0.3,0.5-0.3,0.8-0.3h7.4c2.4,0,5.7,1.7,5.9,5.8C21.6,122,19.5,124.7,16.4,125z M14.7,113.9h-0.4c-0.4,0-0.8,0.1-1,0.4
		c-0.3,0.3-0.3,0.8-0.3,1v7.8c0,0.5,0.3,0.8,0.9,0.8c2.9,0.4,4-2.5,4.1-5C18.1,116.7,17.1,113.9,14.7,113.9z"/>
	<path class="st0" d="M35.2,132.9l-0.6,0.9c-0.3,0.4-1.5,1.4-2.6,1.2c-1-0.2-1.5-1-1.9-1.9l-0.3-0.8l-1.1,1.3
		c-1.3,1.5-3.8,2.2-5,0.7c-1.7-2.1-0.2-4.7,1.8-6.3l3.9-2.9c0.2-0.2,0.3-0.3,0.4-0.6c0.1-0.2,0-0.3,0-0.5v-2.9
		c0-0.8-0.2-1.6-1.1-1.6c-2.3,0-2.6,3.4-2.8,3.9c-0.6,1.5-2.4,1.7-2.9,1.1c-1.1-1.2,1.4-5.4,5.4-5.8c1.8-0.2,4.5-0.3,4.5,2.1v10.9
		c0,0.5,0.1,1.1,0.6,1.2c1,0.1,1.2-1.3,1.8-1.1C35.5,131.9,35.4,132.5,35.2,132.9z M29.8,125.6l-2,1.9c-1.5,1.4-2.3,4.2-1.1,5
		c1.2,0.8,3.1-0.8,3.1-2.3V125.6z"/>
	<path class="st0" d="M39.9,135.1c-1.4,0.1-2.8-0.1-3.6-0.8c-0.1-0.1-0.1-0.3-0.1-0.6v-3.4c0-0.3,0.2-0.5,0.5-0.5
		c0.2,0,0.5,0.1,0.6,0.3l0.7,1.7c0.5,1.3,1.4,2.4,2.6,2.4c1.3,0,2.4-1,2.4-2.7c0-1.2-0.7-2.4-2-3.2l-2.8-1.7c-1.6-1-2.2-2.1-2.2-3.9
		c0.1-2.3,2.1-4,4.4-4.2c1.3-0.1,3.7,0.3,3.9,0.6c0.1,0.2,0.1,0.3,0.1,0.6v2.5c0,0.3-0.2,0.6-0.5,0.5c-0.3,0-0.5-0.2-0.6-0.5
		l-0.5-1.2c-0.5-1.1-1.3-1.7-2.3-1.5c-1,0.1-1.8,0.6-2.1,1.6c-0.3,1.2,0.4,2.2,1.5,2.8l2.6,1.6c1.8,1.1,2.8,2.3,2.8,4.7
		C45.4,133.6,42.5,135,39.9,135.1z"/>
	<path class="st0" d="M52.4,135.1c-4.5-0.3-6.3-3.9-6.3-8.3c0-4.6,3.3-8.1,6.8-8.3c1.7-0.1,3.9,0.2,4.2,1.1c0.1,0.3,0,0.4,0,0.6
		l-0.1,2.5c0,0.3-0.1,0.7-0.5,0.7s-0.7-0.3-0.9-0.7l-0.9-1.9c-0.4-0.9-1-1.5-1.9-1.5c-2.1,0.1-3.5,3.1-3.5,6.9c0,3.6,1.3,7,4.2,7
		c2.7,0,3-3.1,3.8-2.6C58.3,131.2,55.6,135.3,52.4,135.1z"/>
	<path class="st0" d="M65,135.1c-4.1,0.2-7-4.1-7-8.4c0.1-4.1,2.7-8.3,6.8-8.1c3.4,0.1,6.3,3.3,6.4,7.9
		C71.4,131.2,68.4,135,65,135.1z M64.7,119.4c-2.3,0.1-3.2,4.1-3.2,7.2c0,3.2,0.7,7.7,3.5,7.7c2.5,0,3.2-4.2,3.2-7.6
		C68.2,122.9,66.8,119.3,64.7,119.4z"/>
	<path class="st0" d="M73.8,127.6v-1.8H81v1.8H73.8z"/>
	<path class="st0" d="M98.9,134.6l-3.4-0.1l-3.4,0.1c-0.2,0-0.5-0.1-0.5-0.4c0-0.3,0.2-0.5,0.4-0.5l1.1-0.2c0.3-0.1,0.3-0.2,0.5-0.3
		c0.1-0.1,0.3-0.4,0.3-1v-8.8h-6.4v8.8c0,0.6,0.1,0.9,0.3,1c0.2,0.2,0.4,0.3,0.6,0.3l1,0.2c0.3,0,0.4,0.3,0.4,0.5s-0.2,0.4-0.4,0.4
		l-3.4-0.1l-3.6,0.1c-0.3,0-0.5-0.1-0.5-0.4c0-0.3,0.2-0.5,0.4-0.6l1.2-0.2c0.2,0,0.3-0.1,0.5-0.3c0.2-0.3,0.1-0.6,0.1-1v-16.9
		c0-0.3,0-0.6-0.1-0.8c-0.1-0.2-0.3-0.2-0.5-0.3l-0.8-0.1c-0.3,0-0.5-0.2-0.5-0.6c0-0.3,0.3-0.5,0.5-0.5l3.4,0.1l3.2-0.1
		c0.3,0,0.6,0.1,0.6,0.4s-0.2,0.5-0.3,0.5l-1.1,0.1c-0.2,0-0.4,0.1-0.6,0.2c-0.3,0.3-0.3,0.6-0.3,0.9v7.1h6.5v-7
		c0-0.3,0-0.6-0.2-0.9c-0.1-0.1-0.3-0.3-0.5-0.3l-0.9-0.1c-0.3-0.1-0.6-0.2-0.6-0.5s0.3-0.6,0.6-0.6l3.2,0.1l3-0.1
		c0.3,0,0.7,0.2,0.7,0.5c0,0.2-0.1,0.5-0.4,0.5l-1,0.1c-0.2,0-0.4,0.1-0.5,0.3c-0.2,0.3-0.2,0.5-0.2,0.8v16.9c0,0.4,0,0.7,0.2,1
		c0.1,0.2,0.3,0.3,0.5,0.3l1.2,0.2c0.2,0,0.4,0.3,0.4,0.6C99.4,134.5,99.1,134.7,98.9,134.6z"/>
	<path class="st0" d="M110.2,126h-7.5c-0.1,0.9,0,1.4,0.1,2.3c0.3,2.7,1.5,5.3,4.6,5.2c2.3-0.2,3.2-3.2,3.6-2.8
		c1.1,0.9-1.7,4.7-5.3,4.5c-4.3-0.2-6.2-3.6-6.2-8c0-4.6,2.8-8.5,6.4-8.7c4.3-0.3,6,4.7,5.4,7.1C111.2,125.8,110.6,126,110.2,126z
		 M106.5,119.3c-1.9-0.2-3.4,2.4-3.7,4.7l-0.1,0.8h3.8c1.6,0,2.3-1.6,2.1-2.9C108.5,120.6,107.6,119.5,106.5,119.3z"/>
	<path class="st0" d="M121.5,123c-2.3,0.4-1.7-2.1-2.2-2.2c-0.2,0-1.7,1-1.7,3.7v8c0,0.5,0.1,0.8,0.4,1c0.2,0.1,0.5,0.2,0.8,0.2h1
		c0.3,0,0.5,0.3,0.5,0.5c0,0.3-0.3,0.4-0.6,0.4l-3.5-0.1l-3.3,0.1c-0.2,0-0.3-0.2-0.3-0.3c0-0.2,0.1-0.5,0.3-0.5l1.1-0.1
		c0.2,0,0.3-0.1,0.5-0.2c0.3-0.1,0.2-0.7,0.2-1.1v-9.8c0-0.4-0.1-0.8-0.4-1c-0.6-0.4-1.4,0.1-1.5-0.5c-0.1-0.4,0.1-0.5,0.4-0.6
		l1.5-0.5l1.8-1.2c0.3-0.2,0.4-0.5,0.7-0.4c0.3,0.1,0.2,0.8,0.2,1.5v1.8l0.6-1c1.4-2.3,2.3-2.2,2.9-2.2c1.1,0.1,1.8,0.9,2,1.9
		C123,121.5,122.7,122.8,121.5,123z"/>
	<path class="st0" d="M139.3,134.6l-3.2-0.1l-2.7,0.1c-0.3,0-0.7-0.1-0.8-0.4c0-0.3,0.3-0.6,0.6-0.6h0.5c0.3,0,0.7-0.2,0.7-0.3
		c0.1-0.3,0.1-0.4,0.1-0.7v-8.5c0-0.6,0.1-2.8-1.1-3.7c-1.7-1.1-4.5,0.2-4.5,2.9v8.9c0,0.5,0,0.8,0.4,1.1c0.2,0.2,0.5,0.3,0.8,0.3
		h0.6c0.3,0,0.5,0.3,0.5,0.5c0,0.3-0.3,0.4-0.6,0.4l-3.1-0.1l-2.9,0.1c-0.2,0-0.3-0.2-0.3-0.3c-0.1-0.2,0-0.5,0.3-0.5l0.7-0.1
		c0.2,0,0.4-0.1,0.6-0.2c0.3-0.3,0.2-0.7,0.2-1.1v-9.8c0-0.5,0-0.9-0.3-1.1c-0.5-0.4-1.3,0.1-1.4-0.5c-0.1-0.4,0.2-0.5,0.4-0.6
		c0,0,0.9-0.3,1.4-0.6c0.7-0.3,1.7-1.1,1.7-1.1c0.3-0.2,0.4-0.5,0.7-0.4s0.3,0.3,0.3,1v1.7l0.9-0.9c1.8-2,4.7-2.1,6.4-0.8
		c1.2,1,1.5,2.6,1.5,4.5v8.5c0,0.6,0.2,1,0.6,1.2c0.2,0.1,0.3,0.2,0.6,0.2h0.5c0.3,0,0.4,0.1,0.5,0.4
		C139.7,134.4,139.5,134.6,139.3,134.6z"/>
	<path class="st0" d="M153.4,132.9l-0.6,0.9c-0.3,0.4-1.5,1.4-2.6,1.2c-1-0.2-1.5-1-1.9-1.9l-0.3-0.8l-1.1,1.3
		c-1.3,1.5-3.8,2.2-5,0.7c-1.7-2.1-0.2-4.7,1.8-6.3l3.9-2.9c0.2-0.2,0.3-0.3,0.4-0.6c0.1-0.2,0-0.3,0-0.5v-2.9
		c0-0.8-0.2-1.6-1.1-1.6c-2.3,0-2.6,3.4-2.8,3.9c-0.6,1.5-2.4,1.7-2.9,1.1c-1.1-1.2,1.4-5.4,5.4-5.8c1.8-0.2,4.5-0.3,4.5,2.1v10.9
		c0,0.5,0.1,1.1,0.6,1.2c1,0.1,1.2-1.3,1.8-1.1C153.7,131.9,153.6,132.5,153.4,132.9z M148,125.6l-2,1.9c-1.5,1.4-2.3,4.2-1.1,5
		s3.1-0.8,3.1-2.3V125.6z"/>
	<path class="st0" d="M169.4,134.6l-3.2-0.1l-2.7,0.1c-0.3,0-0.7-0.1-0.8-0.4c0-0.3,0.3-0.6,0.6-0.6h0.5c0.3,0,0.7-0.2,0.7-0.3
		c0.1-0.3,0.1-0.4,0.1-0.7v-8.5c0-0.6,0.1-2.8-1.1-3.7c-1.7-1.1-4.5,0.2-4.5,2.9v8.9c0,0.5,0,0.8,0.4,1.1c0.2,0.2,0.5,0.3,0.8,0.3
		h0.6c0.3,0,0.5,0.3,0.5,0.5c0,0.3-0.3,0.4-0.6,0.4l-3.1-0.1l-2.9,0.1c-0.2,0-0.3-0.2-0.3-0.3c-0.1-0.2,0-0.5,0.3-0.5l0.7-0.1
		c0.2,0,0.4-0.1,0.6-0.2c0.3-0.3,0.2-0.7,0.2-1.1v-9.8c0-0.5,0-0.9-0.3-1.1c-0.5-0.4-1.3,0.1-1.4-0.5c-0.1-0.4,0.2-0.5,0.4-0.6
		c0,0,0.9-0.3,1.4-0.6c0.7-0.3,1.7-1.1,1.7-1.1c0.3-0.2,0.4-0.5,0.7-0.4s0.3,0.3,0.3,1v1.7l0.9-0.9c1.8-2,4.7-2.1,6.4-0.8
		c1.2,1,1.5,2.6,1.5,4.5v8.5c0,0.6,0.2,1,0.6,1.2c0.2,0.1,0.3,0.2,0.6,0.2h0.5c0.3,0,0.4,0.1,0.5,0.4
		C169.9,134.4,169.7,134.6,169.4,134.6z"/>
	<path class="st0" d="M180.4,135.2c-0.1,0-0.2,0-0.3,0c-0.3-0.1-0.3-0.5-0.3-0.9v-1.5l-1.2,0.9c-0.8,0.6-1.4,1-2.3,1.2
		c-3.7,0.6-5.9-3.4-5.8-7.7c0.1-4.7,2.6-8.9,6.5-8.7c0.7,0,1.1,0.2,1.8,0.5l0.6,0.3v-4.4c0-0.3,0.1-0.5-0.2-0.7
		c-0.5-0.5-1.5-0.1-1.6-0.6c-0.1-0.4,0.2-0.5,0.5-0.5l1.7-0.5l2-0.8c0.1-0.1,0.4-0.1,0.5-0.1c0.1,0.1,0.2-0.1,0.2,0.6v19.4
		c0,0.3,0.1,1.2,0.4,1.3c0.8,0,0.8-1.5,1.4-1.4c0.3,0,0.5,1.4,0.1,1.7L180.4,135.2z M179.4,122.8c0-2.4-1-3.5-2.6-3.4
		c-2.4,0.3-3.1,3.8-3.1,6.6c0,3.1,0.5,7.2,3.6,7.1c0.5,0,1.3-0.4,1.8-1.1l0.3-0.6V122.8z"/>
	<path class="st0" d="M192.2,135.1c-4.1,0.2-7-4.1-7-8.4c0.1-4.1,2.7-8.3,6.8-8.1c3.4,0.1,6.3,3.3,6.4,7.9
		C198.6,131.2,195.6,135,192.2,135.1z M191.9,119.4c-2.3,0.1-3.2,4.1-3.2,7.2c0,3.2,0.7,7.7,3.5,7.7c2.5,0,3.2-4.2,3.2-7.6
		C195.4,122.9,194,119.3,191.9,119.4z"/>
	<path class="st0" d="M211.2,134.8c-1.7,0.2-5.1-0.3-5.5-1.3c-0.1-0.2-0.1-0.4-0.1-0.7v-4c0-0.4,0.1-1,0.5-1c0.5-0.1,0.6,0.5,0.8,1
		l0.9,2.5c0.6,1.7,2.1,2.7,3.7,2.6c1.4-0.1,3-0.8,3.3-3.2c0.2-2.1-0.8-3.6-2.5-4.7l-3.1-2c-2.5-1.6-4.1-4.1-3.3-6.9
		c0.7-2.8,3-4.3,5.9-4.4c1.6-0.1,3.8,0.6,4.3,1.1c0.1,0.1,0.2,0.6,0.2,1v3.2c0,0.4-0.1,1-0.4,1c-0.3,0-0.6-0.2-0.7-0.6l-0.7-2.3
		c-0.5-1.5-1.6-2.4-3.2-2.4c-1.6,0-2.5,1.3-2.7,2.7c-0.2,1.7,0.4,3.1,1.9,4.1l3.6,2.4c2,1.4,3.2,3,3.2,5.5
		C217.3,131.7,215.1,134.4,211.2,134.8z"/>
	<path class="st0" d="M223.3,135c-1.7-0.2-2.8-1.9-2.7-3.6v-11h-2v-0.6c0.8-0.7,1.5-1.2,2.1-1.8c1.9-1.9,1.8-3.3,2.5-3.1
		c0.1,0,0.2,0.2,0.2,0.4v3.7h2.7c0.3,0,0.3,0.3,0.3,0.6c0,0.3-0.2,0.7-0.5,0.7h-2.4v9.4c0,2.1,0.3,2.8,1.3,3c1.4,0.2,1.7-2,2.3-1.6
		C228,131.9,225.8,135.3,223.3,135z"/>
	<path class="st0" d="M241.2,132.9l-0.6,0.9c-0.3,0.4-1.5,1.4-2.6,1.2c-1-0.2-1.5-1-1.9-1.9l-0.3-0.8l-1.1,1.3
		c-1.3,1.5-3.8,2.2-5,0.7c-1.7-2.1-0.2-4.7,1.8-6.3l3.9-2.9c0.2-0.2,0.3-0.3,0.4-0.6c0.1-0.2,0-0.3,0-0.5v-2.9
		c0-0.8-0.2-1.6-1.1-1.6c-2.3,0-2.6,3.4-2.8,3.9c-0.6,1.5-2.4,1.7-2.9,1.1c-1.1-1.2,1.4-5.4,5.4-5.8c1.8-0.2,4.5-0.3,4.5,2.1v10.9
		c0,0.5,0.1,1.1,0.6,1.2c1,0.1,1.2-1.3,1.8-1.1C241.6,131.9,241.5,132.5,241.2,132.9z M235.9,125.6l-2,1.9c-1.5,1.4-2.3,4.2-1.1,5
		s3.1-0.8,3.1-2.3V125.6z"/>
	<path class="st0" d="M246.2,135c-1.7-0.2-2.8-1.9-2.7-3.6v-11h-2v-0.6c0.8-0.7,1.5-1.2,2.1-1.8c1.9-1.9,1.8-3.3,2.5-3.1
		c0.1,0,0.2,0.2,0.2,0.4v3.7h2.7c0.3,0,0.3,0.3,0.3,0.6c0,0.3-0.2,0.7-0.5,0.7h-2.4v9.4c0,2.1,0.3,2.8,1.3,3c1.4,0.2,1.7-2,2.3-1.6
		C251,131.9,248.8,135.3,246.2,135z"/>
	<path class="st0" d="M261.2,126h-7.5c-0.1,0.9,0,1.4,0.1,2.3c0.3,2.7,1.5,5.3,4.6,5.2c2.3-0.2,3.2-3.2,3.6-2.8
		c1.1,0.9-1.7,4.7-5.3,4.5c-4.3-0.2-6.2-3.6-6.2-8c0-4.6,2.8-8.5,6.4-8.7c4.3-0.3,6,4.7,5.4,7.1C262.2,125.8,261.6,126,261.2,126z
		 M257.5,119.3c-1.9-0.2-3.4,2.4-3.7,4.7l-0.1,0.8h3.8c1.6,0,2.3-1.6,2.1-2.9C259.5,120.6,258.6,119.5,257.5,119.3z"/>
	<path class="st0" d="M283.6,132.4c0,0.3-0.1,0.6-0.3,0.8c-0.9,1-2.9,1.9-5.2,1.8c-5.4-0.3-9-5.8-8.9-11.4s3.7-11.1,8.9-11.2
		c2-0.1,4.7,0.8,5,1.3c0.3,0.4,0.2,0.7,0.2,1.2v2.8c0,0.5,0,1.2-0.5,1.2c-0.2,0-0.4-0.1-0.5-0.3l-1-2.9c-0.6-1.5-1.8-2.5-3.5-2.3
		c-3.4,0.3-5.1,5.8-5,10.2c0.1,4.6,1.8,10.3,5.8,10.3c1.6,0,3.1-1.9,3.6-3.9l0.3-1.8c0.1-0.4,0.3-0.8,0.7-0.7c0.4,0,0.5,0.5,0.5,0.8
		L283.6,132.4z"/>
	<path class="st0" d="M291.9,135.1c-4.1,0.2-7-4.1-7-8.4c0.1-4.1,2.7-8.3,6.8-8.1c3.4,0.1,6.3,3.3,6.4,7.9
		C298.4,131.2,295.3,135,291.9,135.1z M291.6,119.4c-2.3,0.1-3.2,4.1-3.2,7.2c0,3.2,0.7,7.7,3.5,7.7c2.5,0,3.2-4.2,3.2-7.6
		C295.1,122.9,293.7,119.3,291.6,119.4z"/>
	<path class="st0" d="M305.7,134.6l-3.3-0.1l-3.1,0.1c-0.2,0-0.4-0.2-0.5-0.4c-0.1-0.3,0.2-0.5,0.5-0.5h0.6c0.3,0,0.5-0.1,0.8-0.3
		c0.4-0.3,0.4-0.8,0.4-1.4v-16.9c0-0.4-0.1-0.8-0.3-1c-0.5-0.5-1.4-0.1-1.5-0.6c-0.1-0.4,0.4-0.5,0.7-0.6c0,0,0.9-0.2,1.4-0.4
		c0.8-0.3,1.9-1.1,1.9-1.1c0.2-0.1,0.4-0.2,0.6-0.1c0.1,0.1,0.2,0.2,0.2,0.6v20.2c0,0.6,0.2,1,0.3,1.1c0.2,0.1,0.5,0.4,0.8,0.4h0.6
		c0.3,0,0.5,0.2,0.5,0.5C306.3,134.4,306,134.7,305.7,134.6z"/>
	<path class="st0" d="M313.9,134.6l-3.3-0.1l-3.1,0.1c-0.2,0-0.4-0.2-0.5-0.4c-0.1-0.3,0.2-0.5,0.5-0.5h0.6c0.3,0,0.5-0.1,0.8-0.3
		c0.4-0.3,0.4-0.8,0.4-1.4v-16.9c0-0.4-0.1-0.8-0.3-1c-0.5-0.5-1.4-0.1-1.5-0.6c-0.1-0.4,0.4-0.5,0.7-0.6c0,0,0.9-0.2,1.4-0.4
		c0.8-0.3,1.9-1.1,1.9-1.1c0.2-0.1,0.4-0.2,0.6-0.1c0.1,0.1,0.2,0.2,0.2,0.6v20.2c0,0.6,0.2,1,0.3,1.1c0.2,0.1,0.5,0.4,0.8,0.4h0.6
		c0.3,0,0.5,0.2,0.5,0.5C314.4,134.4,314.2,134.7,313.9,134.6z"/>
	<path class="st0" d="M325.8,126h-7.5c-0.1,0.9,0,1.4,0.1,2.3c0.3,2.7,1.5,5.3,4.6,5.2c2.3-0.2,3.2-3.2,3.6-2.8
		c1.1,0.9-1.7,4.7-5.3,4.5c-4.3-0.2-6.2-3.6-6.2-8c0-4.6,2.8-8.5,6.4-8.7c4.3-0.3,6,4.7,5.4,7.1C326.8,125.8,326.3,126,325.8,126z
		 M322.1,119.3c-1.9-0.2-3.4,2.4-3.7,4.7l-0.1,0.8h3.8c1.6,0,2.3-1.6,2.1-2.9C324.1,120.6,323.2,119.5,322.1,119.3z"/>
	<path class="st0" d="M333.2,142.5c-2.4-0.1-5.2-1.6-5.2-4.1c0-1.6,1-2.3,2.2-3.2l0.8-0.6l-1.8-1.9c-0.3-0.3-0.6-0.6-0.6-1.1
		c0.1-0.4,0.3-0.7,0.7-0.9l2.3-1.5l-0.5-0.3c-1.8-1.2-2.5-2.5-2.6-4.8c-0.1-3.3,2.2-5.9,5.2-5.8c1,0,1.9,0.2,2.9,0.8l0.6,0.3h3
		c0.2,0,0.3,0.2,0.4,0.3c0.2,0.3,0.1,1-0.3,1h-1.8c0.7,1.2,0.9,1.9,0.8,3.3c-0.1,3.5-3.1,5.4-5.5,5.4c-1.1,0-2.8,0.5-2.6,1.3
		c0.1,0.5,0.8,0.8,1.3,0.8l3.7,0.3c2.4,0.1,4.4,1.4,4.6,4.1C341.2,140.3,337,142.7,333.2,142.5z M335.4,134.8l-2.8-0.1l-0.7,0.4
		c-1.1,0.6-1.4,2-1.4,2.9c0,2.3,2.1,3.4,4.1,3.4c2.1,0,4.3-1.6,3.8-4.2C338.2,135.8,336.9,134.9,335.4,134.8z M333.9,119.3
		c-1.7,0-2.2,2.9-2.1,5c0.1,2,0.4,4.8,2.3,4.6c1.4-0.1,2.1-2.9,2-4.9C336.1,122,335.7,119.3,333.9,119.3z"/>
	<path class="st0" d="M352.4,126h-7.5c-0.1,0.9,0,1.4,0.1,2.3c0.3,2.7,1.5,5.3,4.6,5.2c2.3-0.2,3.2-3.2,3.6-2.8
		c1.1,0.9-1.7,4.7-5.3,4.5c-4.3-0.2-6.2-3.6-6.2-8c0-4.6,2.8-8.5,6.4-8.7c4.3-0.3,6,4.7,5.4,7.1C353.4,125.8,352.8,126,352.4,126z
		 M348.7,119.3c-1.9-0.2-3.4,2.4-3.7,4.7l-0.1,0.8h3.8c1.6,0,2.3-1.6,2.1-2.9C350.7,120.6,349.8,119.5,348.7,119.3z"/>
</g>
<g>
	<path d="M20.3,27.9c0-15-0.3-16.7-6.5-17.6L9.1,9.8C7.7,9,7.7,5.8,9.4,4.7C19.2,4,30.8,3.4,43.8,3.4c12.7,0,21,1.5,27.2,3.9
		c9.1,3.4,18.2,11.3,18.2,25.8c0,24.4-24.6,28-32.5,28c-1.8,0-3.1,0-4.8-0.1c-1.2-0.7-1.5-3.1-0.4-4c12.4-4,14.9-12.8,14.9-23.8
		s-5.7-22.9-19.1-22.9c-5.5,0-5.8,1.6-5.8,7.6v62.8c0,13.8,0.9,14.9,7.6,16.1l4.8,0.7c1.6,0.7,1.6,4.2,0,5.1
		c-8.3-0.3-15.6-0.4-22.8-0.4c-7.1,0-14.3,0.1-22.3,0.4c-1.6-0.9-1.9-4.3-0.3-5.1l4.2-0.7c6.7-1.2,7.6-2.2,7.6-16.1
		C20.3,80.7,20.3,27.9,20.3,27.9z"/>
	<path d="M122.4,54.9c-6.1,0-6.3,0.1-6.3,4.3v21.4c0,13.8,0.9,14.9,7.6,16.1l4.8,0.6c1.2,0.9,1.2,4.3,0,5.2
		c-8.5-0.3-15.9-0.4-22.6-0.4c-7.1,0-14.6,0.1-22.2,0.4c-1.2-0.9-1.2-4.3,0-5.2l3.6-0.4c6.7-1.3,7.6-2.4,7.6-16.2V25.3
		c0-13.8-0.9-14.9-7.6-16.2l-3.6-0.4c-1.2-0.9-1.2-4.3,0-5.2c7.3,0.3,15,0.4,22.2,0.4c6.7,0,14.1-0.1,20.7-0.4
		c1.2,0.9,1.2,4.3,0,5.2L123.4,9c-6.4,1.3-7.3,2.4-7.3,16.2v17.3c0,4.3,0.1,4.5,6.3,4.5h31c6.3,0,6.3-0.1,6.3-4.5V25.3
		c0-13.8-0.7-14.9-7.6-16.1l-4-0.6c-1.2-0.9-1.2-4.3,0-5.2c8.2,0.3,15.5,0.4,22.6,0.4c7.3,0,14.1-0.1,21-0.4c1.2,0.9,1.2,4.3,0,5.2
		l-3,0.4c-6.8,1.3-7.7,2.4-7.7,16.2v55.4c0,13.8,0.9,14.9,7.7,16.1l3.6,0.6c1.2,0.9,1.2,4.3,0,5.2c-7.4-0.3-14.7-0.4-21.6-0.4
		c-7.4,0-14.7,0.1-21.9,0.4c-1.2-0.9-1.2-4.3,0-5.2l3.3-0.4c6.8-1.3,7.6-2.4,7.6-16.2V59.2c0-4.2,0-4.3-6.3-4.3H122.4z"/>
	<path d="M219.4,104.5c-13.7,0-22.2-3.9-25.3-5.7c-2.8-3.3-4.8-14-4.8-24.1c1-1.9,4.5-2.1,5.7-0.4c3,9.7,13,23.4,25.6,23.4
		c11,0,16.1-7.6,16.1-15c0-12.1-11.3-19.2-20.2-23.7c-10.7-5.4-22.3-14.3-22.5-29c0-16.8,13-28.4,34.5-28.4c4.9,0,11,0.6,17,2.4
		c1.9,0.6,3.3,0.9,5.1,1.2c1.2,3.3,2.7,11.3,2.7,21.3c-0.7,1.8-4.5,1.9-5.8,0.4c-2.5-7.6-8.9-18.5-19.6-18.5
		c-9.8,0-15.2,6.4-15.2,13.8c0,6.8,6.1,13.1,13.5,17l9.8,5.2c9.2,4.9,21,13.5,21,29.9C256.9,92.6,241.9,104.5,219.4,104.5z"/>
	<path d="M348.2,5.3c0,2.7,0.4,14.6,1.8,23.2c-0.6,1.8-4.6,2.4-5.7,1c-4-13.8-13.5-21.3-28-21.3c-16.5,0-34.2,14.1-34.2,43.8
		c0,29.6,17.1,45.5,35,45.5c18,0,26.3-13,30.4-23.1c1.2-1.2,4.8-0.7,5.7,1c-1,11-3.6,19.9-5.7,23.4c-8,2.2-18.6,5.5-30.2,5.5
		c-14.6,0-29.5-3.4-40-11.3c-10.7-8.2-18.9-20.5-18.9-39c0-18.2,7.7-31,18-39.4C286.9,5.9,302,1.5,317.5,1.5
		C332.7,1.5,343.7,5,348.2,5.3z"/>
</g>
</svg>
